<svg width="960" height="780" viewBox="0 0 960 780" fill="none" xmlns="http://www.w3.org/2000/svg">
  <rect width="960" height="780" rx="36" fill="#10212B"/>
  <rect x="66" y="86" width="360" height="256" rx="26" fill="#FCF8F1"/>
  <rect x="66" y="86" width="360" height="44" rx="26" fill="#17303B"/>
  <rect x="94" y="102" width="88" height="10" rx="5" fill="#47626E"/>
  <rect x="206" y="102" width="74" height="10" rx="5" fill="#47626E"/>
  <rect x="98" y="160" width="146" height="14" rx="7" fill="#16303C"/>
  <rect x="98" y="188" width="112" height="14" rx="7" fill="#16303C"/>
  <rect x="98" y="226" width="118" height="32" rx="16" fill="#EA7856"/>
  <rect x="250" y="154" width="140" height="132" rx="20" fill="#E5D6C6"/>

  <rect x="484" y="46" width="410" height="290" rx="28" fill="#FCF8F1"/>
  <rect x="484" y="46" width="410" height="50" rx="28" fill="#17303B"/>
  <rect x="518" y="64" width="112" height="12" rx="6" fill="#47626E"/>
  <rect x="654" y="64" width="88" height="12" rx="6" fill="#47626E"/>
  <rect x="512" y="132" width="172" height="16" rx="8" fill="#16303C"/>
  <rect x="512" y="162" width="132" height="16" rx="8" fill="#16303C"/>
  <rect x="512" y="204" width="128" height="34" rx="17" fill="#71B8B1"/>
  <rect x="692" y="126" width="168" height="166" rx="24" fill="#ECDDCB"/>
  <rect x="514" y="266" width="102" height="12" rx="6" fill="#D9D0C2"/>
  <rect x="636" y="266" width="102" height="12" rx="6" fill="#D9D0C2"/>

  <rect x="110" y="396" width="300" height="246" rx="26" fill="#FCF8F1"/>
  <rect x="110" y="396" width="300" height="46" rx="26" fill="#17303B"/>
  <circle cx="178" cy="515" r="38" fill="#71B8B1"/>
  <rect x="230" y="492" width="104" height="16" rx="8" fill="#16303C"/>
  <rect x="230" y="526" width="132" height="12" rx="6" fill="#D9D0C2"/>
  <rect x="146" y="580" width="228" height="24" rx="12" fill="#EA7856"/>

  <rect x="466" y="386" width="372" height="298" rx="28" fill="#FCF8F1"/>
  <rect x="466" y="386" width="372" height="52" rx="28" fill="#17303B"/>
  <rect x="500" y="408" width="120" height="12" rx="6" fill="#47626E"/>
  <rect x="506" y="478" width="160" height="16" rx="8" fill="#16303C"/>
  <rect x="506" y="512" width="130" height="16" rx="8" fill="#16303C"/>
  <rect x="506" y="554" width="144" height="34" rx="17" fill="#EA7856"/>
  <rect x="684" y="470" width="120" height="76" rx="18" fill="#F0E5D6"/>
  <rect x="684" y="560" width="120" height="76" rx="18" fill="#F0E5D6"/>
</svg>
